<svg aria-hidden="true" style="position: absolute; width: 0; height: 0; overflow: hidden;" version="1.1" xmlns="http://www.w3.org/2000/svg" xmlns:xlink="http://www.w3.org/1999/xlink">
<defs>
<symbol id="icon-client1" viewBox="0 0 59 32">
<path d="M24.348 8l2.435 2.306h-4.522v11.19h11.826v-4.278l2.435 2.303v-11.52h-12.174zM33.983 16.95l-6.918-6.543h6.918v6.539zM31.833 19.864h-7.701v-7.53h0.546v7.019h7.155v0.511zM25.951 22.991l-0.285 0.584-0.285-0.584h-0.237l0.417 0.783v0.452h0.212v-0.452l0.417-0.783h-0.243zM26.31 24.226l0.097-0.285h0.48l0.104 0.285h0.223l-0.47-1.235h-0.191l-0.47 1.235h0.226zM26.647 23.252l0.181 0.515h-0.358l0.177-0.515zM27.781 23.739c-0.028 0.043-0.045 0.096-0.045 0.152 0 0 0 0.001 0 0.001v-0c0 0.104 0.035 0.191 0.108 0.254 0.073 0.066 0.174 0.097 0.296 0.097s0.226-0.035 0.313-0.097l0.070 0.080h0.243l-0.184-0.212c0.070-0.097 0.104-0.223 0.104-0.376h-0.174c0 0.083-0.021 0.16-0.056 0.226l-0.237-0.278 0.083-0.066c0.059-0.042 0.104-0.083 0.129-0.129 0.024-0.040 0.038-0.087 0.038-0.139 0-0.078-0.033-0.149-0.087-0.199l-0-0c-0.055-0.050-0.129-0.080-0.209-0.080-0.003 0-0.007 0-0.010 0h0c-0.006-0-0.013-0.001-0.020-0.001-0.085 0-0.162 0.032-0.221 0.084l0-0c-0.054 0.055-0.087 0.13-0.087 0.213 0 0.006 0 0.012 0 0.018l-0-0.001c0 0.042 0.010 0.083 0.028 0.125s0.052 0.094 0.101 0.153c-0.072 0.048-0.133 0.106-0.183 0.172l-0.001 0.002zM28.337 24.010c-0.053 0.043-0.121 0.069-0.195 0.070h-0c-0.003 0-0.007 0-0.010 0-0.052 0-0.1-0.020-0.136-0.053l0 0c-0.034-0.034-0.056-0.080-0.056-0.132 0-0.002 0-0.005 0-0.007v0c0-0.070 0.035-0.125 0.104-0.177l0.024-0.021 0.268 0.32zM28.118 23.461c-0.059-0.070-0.087-0.129-0.087-0.177 0-0.042 0.010-0.077 0.035-0.104 0.022-0.024 0.054-0.038 0.089-0.038 0.002 0 0.004 0 0.005 0h-0c0.038 0 0.070 0.010 0.094 0.035 0.024 0.021 0.035 0.049 0.035 0.080 0 0.049-0.017 0.090-0.052 0.122l-0.024 0.021-0.094 0.063zM30.129 24.136c0.087-0.077 0.136-0.177 0.146-0.313h-0.212c-0.010 0.090-0.038 0.153-0.080 0.191-0.045 0.038-0.104 0.056-0.191 0.056-0.003 0-0.007 0-0.011 0-0.082 0-0.154-0.041-0.198-0.104l-0.001-0.001c-0.049-0.070-0.073-0.174-0.073-0.306v-0.108c0-0.132 0.024-0.233 0.077-0.299 0.049-0.070 0.122-0.104 0.216-0.104 0.080 0 0.139 0.021 0.181 0.059s0.070 0.104 0.080 0.191h0.212c-0.006-0.123-0.060-0.233-0.142-0.313l-0-0c-0.082-0.070-0.19-0.112-0.307-0.112-0.008 0-0.017 0-0.025 0.001l0.001-0c-0.104 0-0.191 0.024-0.268 0.070-0.077 0.052-0.139 0.118-0.177 0.209-0.042 0.087-0.063 0.191-0.063 0.306v0.118c0 0.111 0.021 0.212 0.063 0.299s0.097 0.153 0.174 0.198c0.077 0.049 0.163 0.070 0.261 0.070 0.139 0 0.254-0.035 0.337-0.108zM31.391 23.962c0.042-0.094 0.063-0.198 0.063-0.32v-0.070c0-0.122-0.021-0.226-0.063-0.313-0.075-0.169-0.241-0.285-0.434-0.285-0.005 0-0.010 0-0.015 0l0.001-0c-0.101 0-0.191 0.024-0.268 0.073s-0.139 0.122-0.181 0.212c-0.042 0.094-0.066 0.198-0.066 0.32v0.070c0 0.118 0.024 0.223 0.066 0.313s0.104 0.16 0.181 0.209c0.080 0.049 0.17 0.073 0.268 0.073 0.104 0 0.191-0.024 0.271-0.070 0.077-0.052 0.139-0.122 0.177-0.212zM31.162 23.263c0.052 0.070 0.080 0.177 0.080 0.313v0.066c0 0.139-0.028 0.243-0.080 0.317-0.046 0.066-0.121 0.108-0.206 0.108-0.005 0-0.009-0-0.014-0l0.001 0c-0.003 0-0.006 0-0.010 0-0.086 0-0.162-0.042-0.209-0.107l-0.001-0.001c-0.051-0.081-0.081-0.179-0.081-0.284 0-0.011 0-0.023 0.001-0.034l-0 0.002v-0.070c0-0.136 0.028-0.237 0.080-0.313 0.047-0.064 0.121-0.105 0.205-0.105 0.005 0 0.010 0 0.014 0l-0.001-0c0.094 0 0.167 0.035 0.219 0.104z"></path>
</symbol>
<symbol id="icon-client2" viewBox="0 0 59 32">
<path d="M28.56 7.628h-0.045l-0.219-0.007h-0.16c-0.010-0-0.022-0-0.034-0-0.147 0-0.294 0.004-0.439 0.011l0.020-0.001c-1.266 0.070-2.504 0.39-3.656 0.932l-0.15 0.073v7.701l0.351-0.118c1.127-0.406 2.429-0.648 3.784-0.664l0.007-0v1.012l-0.369 0.010h-0.028c-1.754 0.097-3.375 0.582-4.806 1.369l0.058-0.029v-9.882c0.78-0.463 1.682-0.84 2.638-1.084l0.072-0.016c0.764-0.206 1.642-0.326 2.547-0.33h0.152c0.635 0.002 1.249 0.084 1.835 0.237l-0.051-0.011v0.998c-0.354-0.088-0.775-0.154-1.205-0.186l-0.026-0.002h-0.024c-0.087-0.007-0.174-0.017-0.254-0.017zM30.313 8.647c0.197 0.013 0.426 0.020 0.657 0.020 0.961 0 1.894-0.124 2.782-0.357l-0.076 0.017c0.98-0.25 1.839-0.594 2.638-1.034l-0.057 0.029v9.701c-0.78 0.464-1.682 0.842-2.638 1.087l-0.072 0.016c-0.835 0.212-1.69 0.323-2.55 0.327-0.018 0-0.038 0-0.059 0-0.667 0-1.314-0.084-1.932-0.241l0.054 0.012v-9.763c0.361 0.088 0.789 0.155 1.226 0.186l0.026 0.001zM35.252 8.723l-0.355 0.118c-1.168 0.42-2.516 0.663-3.921 0.663-0.22 0-0.439-0.006-0.656-0.018l0.030 0.001-0.278-0.017v7.92l0.24 0.021c0.201 0.015 0.436 0.024 0.673 0.024 0.824 0 1.623-0.107 2.384-0.307l-0.065 0.015c0.689-0.177 1.286-0.399 1.852-0.676l-0.057 0.025 0.153-0.070v-7.701z"></path>
<path d="M23.562 21.29c-0.095-0.097-0.227-0.157-0.373-0.157-0.007 0-0.014 0-0.021 0l0.001-0c-0.077 0-0.153 0.014-0.226 0.042-0.195 0.078-0.331 0.266-0.331 0.486 0 0.009 0 0.018 0.001 0.027l-0-0.001v1.322c0 0.090 0.014 0.184 0.052 0.268 0.035 0.070 0.077 0.129 0.132 0.177 0.052 0.045 0.115 0.077 0.181 0.094s0.132 0.028 0.198 0.028c0.303-0.006 0.546-0.253 0.546-0.556 0-0 0-0 0-0v0-0.146h-0.348v0.115c0.003 0.042 0 0.083-0.017 0.118-0.011 0.030-0.028 0.055-0.049 0.077v0c-0.039 0.030-0.089 0.048-0.142 0.049h-0c-0.007 0.001-0.015 0.002-0.023 0.002-0.057 0-0.108-0.028-0.14-0.071l-0-0c-0.031-0.048-0.049-0.106-0.049-0.168 0-0.003 0-0.007 0-0.010v0-1.231c0-0.070 0.014-0.136 0.045-0.195 0.031-0.049 0.085-0.081 0.147-0.081 0.007 0 0.014 0 0.021 0.001l-0.001-0c0.002-0 0.004-0 0.006-0 0.060 0 0.113 0.029 0.147 0.073l0 0c0.037 0.047 0.059 0.107 0.059 0.172 0 0.001 0 0.002 0 0.003v-0 0.118h0.341v-0.136c0-0.001 0-0.003 0-0.005 0-0.159-0.059-0.303-0.157-0.413l0.001 0.001zM25.61 21.277c-0.106-0.089-0.244-0.143-0.394-0.143-0.073 0-0.143 0.013-0.208 0.036l0.004-0.001c-0.070 0.024-0.129 0.059-0.181 0.104-0.059 0.056-0.104 0.118-0.136 0.188-0.035 0.080-0.052 0.167-0.049 0.257v1.263c-0.003 0.090 0.014 0.177 0.049 0.261 0.031 0.070 0.077 0.129 0.136 0.174 0.052 0.052 0.111 0.090 0.181 0.115 0.061 0.023 0.132 0.036 0.205 0.036s0.144-0.013 0.209-0.037l-0.004 0.001c0.215-0.074 0.366-0.275 0.366-0.511 0-0.012-0-0.025-0.001-0.037l0 0.002v-1.266c0-0.007 0.001-0.016 0.001-0.025 0-0.165-0.070-0.313-0.181-0.417l-0-0zM25.45 22.981c0 0.006 0.001 0.012 0.001 0.019 0 0.065-0.027 0.124-0.070 0.165l-0 0c-0.044 0.036-0.1 0.058-0.162 0.058s-0.118-0.022-0.162-0.058l0 0c-0.043-0.041-0.070-0.099-0.070-0.164 0-0.007 0-0.014 0.001-0.021l-0 0.001v-1.263c-0.001-0.006-0.001-0.013-0.001-0.020 0-0.065 0.027-0.123 0.070-0.164l0-0c0.044-0.036 0.1-0.058 0.162-0.058s0.118 0.022 0.162 0.058l-0-0c0.043 0.041 0.070 0.099 0.070 0.164 0 0.007-0 0.014-0.001 0.021l0-0.001v1.263zM28.303 23.548v-2.4h-0.334l-0.435 1.27h-0.007l-0.438-1.27h-0.327v2.397h0.341v-1.461h0.007l0.334 1.033h0.174l0.337-1.030h0.003v1.457h0.344zM30.247 21.322c-0.052-0.063-0.118-0.104-0.195-0.132-0.071-0.024-0.153-0.038-0.238-0.038-0.003 0-0.006 0-0.009 0h-0.507v2.397h0.341v-0.939h0.174c0.108 0.007 0.212-0.014 0.31-0.063 0.138-0.086 0.236-0.226 0.264-0.39l0-0.003c0.014-0.081 0.021-0.173 0.021-0.268 0-0.122-0.013-0.241-0.037-0.355l0.002 0.011c-0.024-0.087-0.067-0.162-0.125-0.223l0 0zM30.073 22.052c-0.003 0.042-0.014 0.083-0.035 0.122-0.021 0.035-0.049 0.070-0.087 0.083-0.044 0.022-0.097 0.035-0.152 0.035-0.003 0-0.006-0-0.009-0h-0.156v-0.817h0.174c0.056 0 0.104 0.007 0.157 0.031 0.035 0.017 0.063 0.049 0.080 0.087s0.027 0.084 0.028 0.132v0.327zM31.861 21.151h-0.278l-0.522 2.397h0.341l0.101-0.515h0.463l0.104 0.515h0.337l-0.539-2.397zM31.548 22.706l0.17-0.87h0.003l0.167 0.87h-0.341zM34.070 22.595h-0.007l-0.515-1.443h-0.327v2.397h0.341v-1.44h0.007l0.518 1.44h0.32v-2.4h-0.341v1.443zM36.157 21.151l-0.278 0.953h-0.003l-0.278-0.953h-0.358l0.47 1.384v1.009h0.341v-1.009l0.47-1.384h-0.362zM22.609 24.223h0.163v0.463h0.111v-0.463h0.163v-0.094h-0.438v0.094zM23.993 24.129l-0.216 0.557h0.118l0.045-0.125h0.223l0.045 0.125h0.122l-0.219-0.557h-0.118zM23.976 24.466l0.073-0.209 0.077 0.209h-0.15zM25.357 24.48h0.132v0.070c-0.036 0.030-0.082 0.048-0.132 0.049h-0c-0.003 0-0.006 0-0.009 0-0.044 0-0.083-0.020-0.109-0.052l-0-0c-0.026-0.037-0.042-0.084-0.042-0.134 0-0.004 0-0.009 0-0.013l-0 0.001c0-0.122 0.052-0.184 0.16-0.184 0.003-0 0.007-0.001 0.011-0.001 0.054 0 0.1 0.037 0.114 0.087l0 0.001 0.111-0.021c-0.024-0.108-0.104-0.163-0.237-0.163-0.003-0-0.007-0-0.011-0-0.071 0-0.135 0.026-0.185 0.070l0-0c-0.050 0.049-0.081 0.118-0.081 0.193 0 0.008 0 0.016 0.001 0.023l-0-0.001c0 0.077 0.021 0.153 0.070 0.209 0.049 0.052 0.119 0.084 0.196 0.084 0.006 0 0.011-0 0.017-0l-0.001 0c0.087 0 0.174-0.031 0.237-0.090v-0.219h-0.243v0.094zM26.755 24.129h-0.111v0.557h0.39v-0.094h-0.278v-0.463zM27.937 24.129h-0.115v0.557h0.115v-0.557zM29.092 24.501l-0.23-0.372h-0.108v0.557h0.104v-0.362l0.223 0.362h0.111v-0.557h-0.104v0.372zM30.136 24.442h0.278v-0.094h-0.278v-0.125h0.296v-0.094h-0.41v0.557h0.424v-0.094h-0.313v-0.15zM32.664 24.348h-0.219v-0.219h-0.111v0.557h0.111v-0.243h0.219v0.243h0.111v-0.557h-0.111v0.219zM33.715 24.442h0.278v-0.094h-0.278v-0.125h0.299v-0.094h-0.41v0.557h0.421v-0.094h-0.31v-0.15zM35.137 24.442c0.097-0.017 0.146-0.070 0.146-0.157 0.001-0.005 0.001-0.010 0.001-0.016 0-0.043-0.021-0.082-0.053-0.106l-0-0c-0.042-0.022-0.092-0.035-0.145-0.035-0.007 0-0.013 0-0.020 0.001l0.001-0h-0.237v0.557h0.111v-0.233h0.024c0.021 0 0.045 0.003 0.070 0.014 0.014 0.010 0.028 0.024 0.035 0.042l0.125 0.174h0.132l-0.070-0.104c-0.028-0.056-0.070-0.104-0.122-0.139zM35.026 24.365h-0.083v-0.139h0.090c0.035-0.003 0.077 0 0.111 0.010 0.016 0.014 0.026 0.034 0.026 0.056 0 0.013-0.003 0.025-0.009 0.035l0-0c-0.005 0.010-0.012 0.018-0.021 0.024l-0 0c-0.028 0.009-0.061 0.015-0.095 0.015-0.007 0-0.014-0-0.021-0.001l0.001 0zM36.212 24.442h0.278v-0.094h-0.278v-0.125h0.299v-0.094h-0.41v0.557h0.421v-0.094h-0.31v-0.15z"></path>
</symbol>
<symbol id="icon-client3" viewBox="0 0 59 32">
<path d="M23.791 22.643l0.017 0.003 0.014 0.007 0.077 0.073c-0.059 0.059-0.132 0.104-0.212 0.139-0.097 0.035-0.202 0.052-0.303 0.049-0.097 0-0.195-0.014-0.285-0.045-0.16-0.055-0.287-0.175-0.35-0.327l-0.001-0.004c-0.033-0.077-0.052-0.166-0.052-0.259s0.019-0.183 0.054-0.264l-0.002 0.004c0.035-0.073 0.083-0.143 0.15-0.202 0.063-0.056 0.139-0.101 0.226-0.129 0.088-0.032 0.189-0.050 0.294-0.050 0.098 0 0.192 0.016 0.279 0.045l-0.006-0.002c0.073 0.028 0.143 0.070 0.202 0.118l-0.063 0.077c-0.005 0.006-0.011 0.010-0.017 0.014l-0 0c-0.007 0.004-0.015 0.007-0.024 0.007-0 0-0 0-0 0v0c-0.011-0.001-0.020-0.005-0.028-0.011l0 0-0.035-0.021-0.045-0.024c-0.070-0.035-0.152-0.056-0.24-0.056-0.009 0-0.017 0-0.026 0.001l0.001-0c-0.070 0-0.143 0.010-0.209 0.035-0.124 0.043-0.221 0.134-0.27 0.251l-0.001 0.003c-0.026 0.059-0.041 0.129-0.042 0.202v0c0 0.070 0.014 0.143 0.038 0.209 0.048 0.118 0.143 0.209 0.261 0.25l0.003 0.001c0.063 0.021 0.129 0.035 0.195 0.035l0.115-0.010c0.096-0.009 0.182-0.047 0.251-0.105l-0.001 0.001c0.009-0.008 0.021-0.013 0.035-0.014h0zM25.983 22.278c0 0.090-0.014 0.174-0.049 0.257-0.035 0.073-0.080 0.139-0.143 0.198-0.066 0.059-0.139 0.104-0.226 0.132-0.184 0.063-0.39 0.063-0.577 0-0.086-0.031-0.16-0.076-0.223-0.133l0.001 0.001c-0.060-0.055-0.108-0.122-0.141-0.198l-0.001-0.004c-0.070-0.163-0.070-0.348 0-0.511 0.035-0.077 0.080-0.143 0.143-0.202 0.066-0.056 0.139-0.097 0.223-0.129 0.086-0.030 0.185-0.047 0.289-0.047s0.203 0.017 0.295 0.049l-0.006-0.002c0.083 0.031 0.16 0.077 0.226 0.132 0.118 0.108 0.192 0.264 0.192 0.436 0 0.007-0 0.014-0 0.021l0-0.001zM25.784 22.278c0-0.070-0.010-0.139-0.035-0.205-0.046-0.118-0.14-0.209-0.258-0.25l-0.003-0.001c-0.062-0.021-0.134-0.033-0.209-0.033s-0.146 0.012-0.213 0.035l0.005-0.001c-0.064 0.022-0.118 0.055-0.164 0.098l0-0c-0.045 0.042-0.080 0.093-0.103 0.15l-0.001 0.003c-0.045 0.136-0.045 0.278 0 0.414 0.046 0.119 0.142 0.211 0.261 0.25l0.003 0.001c0.136 0.042 0.285 0.042 0.417 0 0.063-0.024 0.118-0.056 0.163-0.097 0.045-0.045 0.080-0.097 0.101-0.153 0.024-0.070 0.035-0.139 0.035-0.209zM27.478 22.494l0.021 0.049 0.021-0.049 0.024-0.045 0.487-0.765c0.007-0.010 0.017-0.021 0.024-0.021 0.012-0.004 0.027-0.007 0.042-0.007v0h0.143v1.245h-0.17v-0.995l-0.487 0.776c-0.007 0.012-0.016 0.021-0.027 0.028l-0 0c-0.012 0.007-0.026 0.010-0.041 0.010-0 0-0 0-0 0h-0.028c-0 0-0.001 0-0.001 0-0.015 0-0.029-0.004-0.041-0.011l0 0c-0.012-0.007-0.021-0.016-0.028-0.027l-0-0-0.501-0.783v1.002h-0.167v-1.245h0.146c0.014 0 0.024 0 0.038 0.007 0.010 0.003 0.021 0.010 0.028 0.021l0.494 0.765 0.024 0.045zM29.301 22.435v0.466h-0.188v-1.245h0.424c0.077 0 0.157 0.010 0.233 0.028 0.063 0.014 0.118 0.042 0.167 0.077 0.042 0.035 0.077 0.077 0.097 0.122 0.021 0.052 0.035 0.104 0.031 0.16 0 0.001 0 0.002 0 0.003 0 0.113-0.054 0.214-0.138 0.278l-0.001 0.001c-0.049 0.038-0.104 0.070-0.167 0.083-0.066 0.020-0.143 0.031-0.222 0.031-0.003 0-0.006 0-0.008-0h0l-0.23-0.003zM29.301 22.299h0.23c0.052 0 0.101-0.003 0.15-0.017 0.040-0.013 0.075-0.032 0.105-0.056l-0.001 0c0.053-0.044 0.087-0.111 0.087-0.185 0-0.001 0-0.002-0-0.003v0c0-0.004 0-0.008 0-0.013 0-0.031-0.007-0.060-0.018-0.086l0.001 0.001c-0.017-0.035-0.040-0.064-0.069-0.087l-0.001-0c-0.070-0.049-0.16-0.070-0.254-0.066h-0.23v0.511zM31.85 22.901h-0.15c-0.001 0-0.003 0-0.005 0-0.014 0-0.026-0.004-0.037-0.011l0 0c-0.010-0.007-0.018-0.017-0.024-0.027l-0-0-0.129-0.303h-0.647l-0.136 0.303c-0.011 0.025-0.035 0.042-0.064 0.042-0.002 0-0.004-0-0.006-0l0 0h-0.146l0.57-1.249h0.198l0.574 1.245zM30.911 22.438h0.536l-0.226-0.504c-0.017-0.038-0.031-0.080-0.042-0.118l-0.021 0.066-0.021 0.052-0.226 0.504zM32.671 21.663l0.028 0.021 0.831 0.939v-0.967h0.167v1.245h-0.094c-0.014 0-0.028 0-0.038-0.007-0.012-0.006-0.023-0.014-0.031-0.024l-0-0-0.828-0.939v0.97h-0.17v-1.245h0.104c0.007 0 0.021 0 0.031 0.007zM35.096 22.407v0.494h-0.188v-0.494l-0.525-0.751h0.17c0.001-0 0.003-0 0.005-0 0.014 0 0.026 0.004 0.037 0.011l-0-0 0.024 0.028 0.327 0.487c0.021 0.031 0.041 0.066 0.057 0.103l0.002 0.005 0.024-0.052 0.035-0.056 0.32-0.487c0.007-0.011 0.015-0.020 0.024-0.028l0-0c0.011-0.009 0.024-0.014 0.039-0.014 0.001 0 0.002 0 0.002 0h0.174l-0.529 0.755zM27.384 19.569l0.25 0.021c1.27-0.487 2.325-1.294 3.1-2.323l0.013-0.018c0.691-0.921 1.107-2.084 1.107-3.344 0-0.035-0-0.070-0.001-0.105l0 0.005-1.412-1.224c0.289 1.297 0.153 2.637-0.386 3.871-0.592 1.293-1.507 2.351-2.644 3.1l-0.027 0.017z"></path>
<path d="M26.88 19.513l0.038 0.003c1.287-0.8 2.271-1.917 2.817-3.21 0.312-0.704 0.493-1.524 0.493-2.387 0-0.585-0.083-1.151-0.239-1.687l0.011 0.043-2.010-1.743c0.626 1.071 0.996 2.358 0.996 3.732 0 0.315-0.019 0.626-0.057 0.931l0.004-0.036c-0.229 1.698-0.968 3.192-2.056 4.356l0.004-0.005zM33.694 15.245c-0.391 1.419-1.228 2.605-2.348 3.428l-0.017 0.012c-0.348 0.264-0.723 0.497-1.12 0.699 0.97-0.247 1.864-0.685 2.609-1.28 0.719-0.57 1.292-1.292 1.676-2.121l0.015-0.036-0.814-0.703z"></path>
<path d="M33.374 15.047l-1.162-1.009c-0.031 1.224-0.434 2.348-1.1 3.269l0.012-0.017c-0.726 1-1.683 1.791-2.794 2.302l-0.044 0.018h0.007c0.261 0 0.522-0.014 0.779-0.038 1.104-0.389 2.044-1.002 2.805-1.789l0.002-0.002c0.713-0.737 1.236-1.662 1.487-2.694l0.008-0.040zM27.050 9.795l-1.384-1.203c-1.235 0.407-2.273 1.133-3.048 2.082l-0.009 0.012c-0.71 0.875-1.144 2-1.155 3.225l-0 0.002c0.018 1.358 0.548 2.59 1.405 3.513l-0.003-0.003c0.932 1.003 2.159 1.72 3.542 2.013l0.044 0.008c1.2-1.237 1.983-2.884 2.12-4.712l0.002-0.025c0.008-0.125 0.012-0.271 0.012-0.419 0-1.698-0.574-3.263-1.538-4.51l0.013 0.017zM36.57 14.863c-0.003-1.513-0.696-2.957-1.927-4.028-1.229-1.041-2.832-1.673-4.583-1.673-0.018 0-0.035 0-0.053 0h0.003c-0.803 0-1.6 0.129-2.351 0.383l8.473 7.357c0.276-0.599 0.437-1.3 0.438-2.038v-0z"></path>
</symbol>
<symbol id="icon-client4" viewBox="0 0 59 32">
<path d="M19.53 12.904c-0.835 0-1.513 0.602-1.513 1.343 0 0.744 0.678 1.343 1.51 1.343 0.835 0 1.513-0.598 1.513-1.343 0-0.741-0.678-1.343-1.51-1.343zM30.678 12.477c-0.003-1.030-0.466-2.017-1.287-2.748-0.814-0.707-1.884-1.137-3.055-1.137-0.011 0-0.021 0-0.032 0h0.002c-1.158 0-2.271 0.41-3.089 1.141-0.777 0.669-1.27 1.647-1.287 2.741l-0 0.003v5.677s8.748-0.866 8.748-5.677zM14.957 20.017c0 0.717 0.323 1.402 0.894 1.91 0.567 0.493 1.313 0.793 2.128 0.793 0.006 0 0.013-0 0.019-0h-0.001c0.807 0 1.579-0.285 2.15-0.793 0.54-0.466 0.882-1.146 0.894-1.908l0-0.002v-3.948s-6.083 0.602-6.083 3.948zM17.997 20.723c-0.157 0-0.313-0.038-0.442-0.118-0.127-0.075-0.227-0.183-0.29-0.312l-0.002-0.004c-0.038-0.079-0.061-0.173-0.061-0.271 0-0.049 0.006-0.097 0.016-0.144l-0.001 0.004c0.031-0.139 0.104-0.261 0.219-0.362 0.111-0.098 0.249-0.167 0.402-0.194l0.005-0.001c0.153-0.024 0.313-0.010 0.459 0.042s0.271 0.143 0.358 0.261c0.083 0.109 0.133 0.246 0.133 0.396 0 0.199-0.089 0.378-0.23 0.498l-0.001 0.001c-0.077 0.070-0.163 0.118-0.261 0.157-0.097 0.035-0.198 0.052-0.306 0.052zM24.146 20.334h-0.588v0.609h-0.306v-1.485h0.967v0.247h-0.661v0.383h0.588v0.247zM25.614 20.233c0 0.146-0.024 0.275-0.077 0.383-0.092 0.207-0.296 0.348-0.532 0.348-0.007 0-0.015-0-0.022-0l0.001 0c-0.006 0-0.013 0-0.021 0-0.236 0-0.439-0.138-0.534-0.338l-0.002-0.004c-0.049-0.105-0.077-0.228-0.077-0.358 0-0.009 0-0.017 0-0.026l-0 0.001v-0.066c0-0.15 0.024-0.278 0.077-0.386 0.095-0.207 0.301-0.348 0.539-0.348 0.006 0 0.012 0 0.018 0l-0.001-0c0.122 0 0.233 0.031 0.327 0.090 0.097 0.059 0.174 0.146 0.223 0.257 0.056 0.108 0.080 0.237 0.080 0.383v0.070zM25.304 20.163c0-0.153-0.028-0.271-0.083-0.351-0.049-0.074-0.132-0.122-0.226-0.122-0.004 0-0.007 0-0.011 0h0c-0.104 0-0.184 0.038-0.24 0.118s-0.083 0.198-0.083 0.351v0.073c0 0.153 0.028 0.268 0.083 0.351s0.139 0.125 0.243 0.125c0.101 0 0.177-0.038 0.233-0.118s0.083-0.198 0.083-0.351v-0.073zM26.605 20.553c0-0.059-0.021-0.104-0.059-0.132-0.064-0.041-0.138-0.075-0.217-0.096l-0.005-0.001c-0.104-0.035-0.188-0.070-0.25-0.104-0.167-0.090-0.254-0.212-0.254-0.365 0-0.083 0.024-0.153 0.070-0.216s0.108-0.111 0.195-0.15c0.083-0.035 0.177-0.052 0.285-0.052 0.104 0 0.198 0.021 0.282 0.059 0.083 0.035 0.146 0.090 0.195 0.163 0.045 0.070 0.070 0.15 0.070 0.237h-0.306c0-0.070-0.024-0.122-0.066-0.157-0.045-0.037-0.103-0.060-0.166-0.060-0.005 0-0.011 0-0.016 0l0.001-0c-0.005-0-0.010-0-0.016-0-0.059 0-0.114 0.018-0.159 0.050l0.001-0.001c-0.038 0.027-0.063 0.072-0.063 0.122 0 0.001 0 0.002 0 0.004v-0c0 0.049 0.024 0.087 0.073 0.122 0.049 0.031 0.122 0.063 0.216 0.090 0.174 0.052 0.299 0.118 0.383 0.195 0.077 0.077 0.115 0.174 0.115 0.289 0 0.129-0.049 0.23-0.143 0.303-0.097 0.073-0.23 0.111-0.393 0.111-0.003 0-0.006 0-0.010 0-0.11 0-0.214-0.023-0.308-0.065l0.005 0.002c-0.17-0.064-0.289-0.225-0.289-0.414 0-0.003 0-0.007 0-0.010v0.001h0.306c0 0.163 0.101 0.243 0.296 0.243 0.070 0 0.129-0.014 0.17-0.042 0.038-0.035 0.059-0.073 0.059-0.125zM28.24 19.704h-0.456v1.238h-0.306v-1.238h-0.452v-0.243h1.21v0.243zM29.304 20.296h-0.584v0.4h0.689v0.243h-0.995v-1.482h0.991v0.247h-0.685v0.355h0.584v0.24zM30.139 20.4h-0.243v0.543h-0.31v-1.485h0.553c0.174 0 0.31 0.038 0.403 0.118 0.097 0.077 0.143 0.188 0.143 0.33 0 0.104-0.021 0.184-0.066 0.254-0.042 0.070-0.108 0.122-0.198 0.16l0.32 0.609v0.014h-0.327l-0.278-0.543zM29.896 20.15h0.243c0.077 0 0.139-0.017 0.177-0.056s0.063-0.091 0.063-0.149c0-0.005-0-0.010-0-0.015l0 0.001c0-0.070-0.017-0.125-0.059-0.163-0.038-0.042-0.101-0.063-0.181-0.063h-0.243v0.445zM31.746 20.417v0.522h-0.306v-1.482h0.577c0.111 0 0.209 0.021 0.296 0.063 0.083 0.038 0.15 0.097 0.195 0.174 0.045 0.073 0.070 0.16 0.070 0.254 0 0.146-0.052 0.261-0.153 0.348-0.097 0.080-0.237 0.122-0.41 0.122h-0.268zM31.746 20.174h0.271c0.080 0 0.143-0.021 0.184-0.059 0.045-0.038 0.066-0.094 0.066-0.163 0-0.002 0-0.005 0-0.007 0-0.065-0.025-0.123-0.066-0.167l0 0c-0.043-0.043-0.103-0.070-0.169-0.070-0.002 0-0.003 0-0.005 0h-0.281v0.463zM33.68 20.299h-0.588v0.397h0.689v0.243h-0.995v-1.482h0.991v0.247h-0.685v0.355h0.588v0.24zM35.099 19.708h-0.456v1.235h-0.306v-1.238h-0.449v-0.243h1.21v0.243zM36.167 20.299h-0.591v0.397h0.692v0.243h-0.995v-1.482h0.991v0.247h-0.685v0.355h0.588v0.24zM36.995 20.4h-0.243v0.543h-0.306v-1.485h0.553c0.174 0 0.313 0.038 0.407 0.118 0.094 0.077 0.139 0.188 0.139 0.33 0 0.104-0.021 0.184-0.063 0.254-0.045 0.070-0.111 0.122-0.202 0.16l0.323 0.609v0.014h-0.33l-0.278-0.543zM36.751 20.15h0.247c0.077 0 0.139-0.017 0.181-0.056 0.039-0.038 0.063-0.091 0.063-0.149 0-0.005-0-0.010-0.001-0.015l0 0.001c0-0.070-0.021-0.125-0.063-0.163-0.035-0.042-0.097-0.063-0.181-0.063h-0.243v0.445zM38.55 20.553c0-0.059-0.021-0.104-0.063-0.132-0.063-0.041-0.136-0.075-0.214-0.096l-0.005-0.001c-0.104-0.035-0.191-0.070-0.25-0.104-0.17-0.090-0.254-0.212-0.254-0.365 0-0.083 0.021-0.153 0.070-0.216 0.042-0.063 0.108-0.111 0.191-0.15 0.087-0.035 0.181-0.052 0.285-0.052s0.202 0.021 0.285 0.059c0.083 0.035 0.146 0.090 0.191 0.163 0.045 0.070 0.070 0.15 0.070 0.237h-0.306c0-0.070-0.021-0.122-0.063-0.157-0.045-0.037-0.103-0.060-0.166-0.060-0.005 0-0.011 0-0.016 0l0.001-0c-0.005-0-0.010-0-0.016-0-0.059 0-0.114 0.018-0.159 0.050l0.001-0.001c-0.038 0.027-0.063 0.070-0.063 0.12 0 0.002 0 0.004 0 0.006v-0c0 0.049 0.024 0.087 0.070 0.122 0.052 0.031 0.122 0.063 0.219 0.090 0.174 0.052 0.299 0.118 0.379 0.195s0.118 0.174 0.118 0.289c0 0.129-0.049 0.23-0.146 0.303s-0.226 0.111-0.393 0.111c-0.003 0-0.006 0-0.010 0-0.11 0-0.214-0.023-0.308-0.065l0.005 0.002c-0.17-0.064-0.289-0.225-0.289-0.414 0-0.003 0-0.007 0-0.010v0.001h0.31c0 0.163 0.097 0.243 0.292 0.243 0.073 0 0.132-0.014 0.174-0.042 0.038-0.035 0.059-0.073 0.059-0.125z"></path>
</symbol>
<symbol id="icon-client5" viewBox="0 0 59 32">
<path d="M20.438 21.127c0.083 0.094 0.129 0.216 0.125 0.337 0.007 0.080-0.010 0.16-0.045 0.237-0.035 0.073-0.083 0.139-0.15 0.195-0.167 0.111-0.369 0.167-0.577 0.157h-1.009v-2.157h0.988c0.016-0.001 0.035-0.002 0.054-0.002 0.184 0 0.356 0.055 0.499 0.15l-0.003-0.002c0.063 0.049 0.115 0.111 0.146 0.181 0.035 0.070 0.049 0.146 0.045 0.223 0.007 0.118-0.035 0.233-0.115 0.327-0.077 0.087-0.181 0.146-0.299 0.17 0.132 0.021 0.254 0.087 0.341 0.184zM19.256 20.8h0.417c0.097 0.007 0.195-0.017 0.271-0.070 0.035-0.028 0.056-0.059 0.070-0.097 0.017-0.035 0.024-0.077 0.021-0.115 0.001-0.007 0.001-0.014 0.001-0.022 0-0.033-0.007-0.065-0.019-0.094l0.001 0.002c-0.017-0.037-0.040-0.069-0.069-0.094l-0-0c-0.068-0.047-0.153-0.074-0.243-0.074-0.012 0-0.024 0-0.037 0.002l0.002-0h-0.417v0.563zM19.986 21.628c0.035-0.028 0.059-0.063 0.077-0.101 0.017-0.035 0.024-0.080 0.024-0.118 0-0.004 0-0.009 0-0.013 0-0.039-0.009-0.077-0.025-0.11l0.001 0.001c-0.019-0.040-0.046-0.074-0.079-0.1l-0.001-0c-0.072-0.048-0.161-0.077-0.257-0.077-0.010 0-0.020 0-0.029 0.001l0.001-0h-0.445v0.591h0.452c0.097 0.007 0.198-0.021 0.278-0.077zM22.459 22.052l-0.546-0.842h-0.209v0.842h-0.473v-2.157h0.897c0.019-0.001 0.042-0.002 0.064-0.002 0.212 0 0.407 0.070 0.564 0.188l-0.002-0.002c0.132 0.119 0.215 0.291 0.215 0.482 0 0.156-0.055 0.298-0.146 0.41l0.001-0.001c-0.115 0.118-0.268 0.195-0.431 0.219l0.584 0.863h-0.515zM21.701 20.915h0.39c0.268 0 0.403-0.104 0.403-0.323 0-0.004 0-0.009 0-0.014 0-0.043-0.009-0.083-0.025-0.12l0.001 0.002c-0.018-0.044-0.044-0.081-0.076-0.111l-0-0c-0.073-0.055-0.166-0.088-0.266-0.088-0.013 0-0.025 0.001-0.038 0.002l0.002-0h-0.393l0.003 0.654zM25.047 21.617h-0.943l-0.167 0.435h-0.497l0.87-2.132h0.536l0.863 2.132h-0.497l-0.167-0.435zM24.922 21.29l-0.348-0.908-0.344 0.908h0.692zM28.285 22.052h-0.47l-1.054-1.464v1.461h-0.466v-2.15h0.47l1.054 1.471v-1.471h0.47v2.153zM30.967 21.534c-0.097 0.163-0.243 0.296-0.424 0.383-0.205 0.094-0.431 0.139-0.661 0.136h-0.835v-2.157h0.835c0.23-0.003 0.456 0.042 0.661 0.136 0.181 0.083 0.327 0.212 0.424 0.376 0.091 0.163 0.145 0.357 0.145 0.563s-0.054 0.401-0.148 0.569l0.003-0.006zM30.431 21.485c0.132-0.143 0.209-0.327 0.209-0.515s-0.077-0.372-0.209-0.515c-0.145-0.114-0.331-0.183-0.532-0.183-0.021 0-0.041 0.001-0.062 0.002l0.003-0h-0.323v1.391h0.327c0.212 0.014 0.424-0.052 0.588-0.181zM25.343 7.92s6.063 2.094 5.934 5.13v5.13s-6.059-2.097-5.934-5.13v-5.13zM36.682 16.981c1.099-0.698 2.41-1.164 3.818-1.298l0.035-0.003v-1.607c-1.595 0.56-2.913 1.572-3.837 2.883l-0.016 0.025z"></path>
<path d="M35.993 17.461c0.995-1.755 2.583-3.076 4.486-3.705l0.057-0.016v-4.637s-8.64 2.995-8.456 7.315v7.304s0.383-0.132 0.991-0.383c0-0.237 0-0.47 0.028-0.706 0.216-2.118 1.295-3.948 2.876-5.156l0.018-0.013z"></path>
<path d="M35.172 20.177c0.045-0.504 0.146-1.009 0.303-1.496-1.088 1.155-1.774 2.7-1.829 4.403l-0 0.011c0.721-0.315 1.267-0.582 1.802-0.868l-0.14 0.068c-0.153-0.696-0.198-1.409-0.136-2.118zM35.513 20.205c-0.056 0.64-0.017 1.287 0.111 1.913 2.358-1.29 5.009-3.287 4.908-5.704v-0.209c-1.733 0.173-3.278 0.87-4.501 1.929l0.010-0.009c-0.27 0.608-0.457 1.314-0.523 2.054l-0.002 0.026z"></path>
</symbol>
<symbol id="icon-client6" viewBox="0 0 59 32">
<path d="M29.711 15.096c-0.132-0.171-0.211-0.388-0.211-0.623 0-0.023 0.001-0.046 0.002-0.069l-0 0.003v-1.002c0-0.31 0.070-0.543 0.209-0.703s0.383-0.24 0.72-0.237c0.317 0 0.546 0.070 0.678 0.202 0.146 0.174 0.216 0.386 0.202 0.602v0.233h-0.57v-0.237c0-0.080-0.003-0.157-0.017-0.233-0.009-0.056-0.038-0.105-0.080-0.139l-0-0c-0.052-0.035-0.116-0.057-0.185-0.057-0.008 0-0.017 0-0.025 0.001l0.001-0c-0.006-0-0.013-0.001-0.021-0.001-0.073 0-0.14 0.022-0.196 0.061l0.001-0.001c-0.048 0.038-0.083 0.090-0.097 0.151l-0 0.002c-0.014 0.080-0.021 0.163-0.021 0.243v1.217c-0.010 0.122 0.017 0.237 0.073 0.344 0.028 0.035 0.070 0.066 0.115 0.083 0.032 0.012 0.070 0.020 0.109 0.020 0.013 0 0.026-0.001 0.039-0.002l-0.002 0c0.008 0.001 0.017 0.001 0.027 0.001 0.065 0 0.126-0.020 0.176-0.054l-0.001 0.001c0.045-0.037 0.077-0.089 0.087-0.148l0-0.001c0.010-0.080 0.017-0.163 0.017-0.243v-0.25h0.57v0.226c0.014 0.223-0.056 0.445-0.198 0.63-0.132 0.15-0.355 0.223-0.682 0.223-0.33 0-0.577-0.080-0.717-0.243zM32.090 15.11c-0.146-0.157-0.216-0.383-0.216-0.685v-1.054c0-0.299 0.070-0.522 0.216-0.678 0.143-0.153 0.383-0.23 0.723-0.226 0.334 0 0.574 0.073 0.717 0.226 0.146 0.153 0.219 0.379 0.219 0.678v1.054c0 0.299-0.073 0.525-0.219 0.682-0.146 0.16-0.383 0.237-0.717 0.237s-0.581-0.080-0.723-0.233zM33.078 14.856c0.052-0.097 0.077-0.205 0.070-0.313v-1.29c0.007-0.104-0.017-0.209-0.070-0.306-0.030-0.037-0.069-0.066-0.113-0.083l-0.002-0.001c-0.033-0.013-0.070-0.020-0.11-0.020-0.014 0-0.028 0.001-0.041 0.003l0.002-0c-0.012-0.002-0.027-0.003-0.041-0.003-0.040 0-0.078 0.007-0.114 0.021l0.002-0.001c-0.047 0.018-0.087 0.046-0.118 0.083l-0 0c-0.049 0.094-0.073 0.202-0.070 0.306v1.297c-0.003 0.104 0.017 0.216 0.070 0.313 0.071 0.064 0.166 0.103 0.27 0.103 0.052 0 0.102-0.010 0.147-0.028l-0.003 0.001c0.049-0.017 0.087-0.045 0.122-0.077v-0.007zM34.435 12.494h0.616l0.463 1.948 0.473-1.948h0.598l0.059 2.81h-0.442l-0.049-1.951-0.452 1.951h-0.358l-0.473-1.958-0.042 1.958h-0.449l0.056-2.81zM37.332 12.494h0.957c0.553 0 0.828 0.268 0.828 0.8 0 0.508-0.289 0.765-0.87 0.765h-0.327v1.245h-0.591l0.003-2.81zM38.15 13.697c0.059 0.003 0.118 0 0.174-0.014 0.056-0.017 0.108-0.042 0.15-0.077 0.070-0.094 0.101-0.209 0.087-0.317 0-0.087-0.007-0.174-0.028-0.254-0.009-0.031-0.025-0.058-0.045-0.080l0 0c-0.020-0.023-0.045-0.041-0.072-0.055l-0.001-0.001c-0.083-0.035-0.174-0.049-0.264-0.045h-0.23v0.842h0.23zM39.965 12.494h0.637l0.654 2.81h-0.553l-0.129-0.647h-0.567l-0.132 0.647h-0.557l0.65-2.81zM40.511 14.33l-0.223-1.179-0.219 1.183h0.442zM41.781 12.494h0.414l0.79 1.603v-1.6h0.494v2.807h-0.393l-0.797-1.67v1.67h-0.508v-2.81zM44.626 14.233l-0.661-1.736h0.557l0.4 1.113 0.376-1.113h0.543l-0.647 1.739v1.068h-0.57v-1.071zM30.626 16.532v0.146h-0.483v1.144h-0.202v-1.144h-0.487v-0.146h1.172zM32.139 17.823h-0.16c-0.016 0-0.030-0.005-0.042-0.014l0 0c-0.012-0.007-0.021-0.016-0.028-0.027l-0-0-0.139-0.306h-0.668l-0.139 0.306c-0.004 0.014-0.011 0.025-0.021 0.035v0c-0.011 0.007-0.023 0.011-0.037 0.011-0.003 0-0.006-0-0.008-0l0 0h-0.157l0.591-1.287h0.209l0.595 1.283zM31.158 17.343h0.557l-0.237-0.522c-0.015-0.034-0.029-0.076-0.040-0.119l-0.001-0.007-0.024 0.070-0.021 0.056-0.233 0.522zM33.155 17.694h0.111c0.066-0.003 0.127-0.016 0.186-0.036l-0.005 0.001 0.077-0.035v-0.289h-0.233c-0.001 0-0.003 0-0.004 0-0.012 0-0.022-0.004-0.030-0.011l0 0c-0.003-0.003-0.005-0.006-0.007-0.010l-0-0-0.003-0.014v-0.097h0.459v0.494c-0.113 0.070-0.248 0.117-0.393 0.128l-0.003 0c-0.059 0.007-0.115 0.010-0.174 0.010-0.104 0-0.202-0.017-0.299-0.049-0.091-0.032-0.17-0.078-0.237-0.136l0.001 0.001c-0.062-0.056-0.112-0.123-0.148-0.198l-0.002-0.004c-0.038-0.087-0.056-0.177-0.056-0.268-0-0.007-0-0.014-0-0.022 0-0.18 0.081-0.342 0.208-0.45l0.001-0.001c0.063-0.059 0.146-0.104 0.233-0.136 0.092-0.031 0.199-0.050 0.309-0.050 0.060 0 0.119 0.005 0.177 0.016l-0.006-0.001c0.097 0.014 0.185 0.043 0.265 0.086l-0.004-0.002c0.035 0.017 0.070 0.042 0.104 0.066l-0.059 0.080c-0.005 0.008-0.012 0.014-0.021 0.017l-0 0c-0.007 0.004-0.015 0.006-0.024 0.007h-0c-0.013-0.001-0.025-0.004-0.035-0.011l0 0c-0.021-0.007-0.038-0.017-0.059-0.031-0.094-0.046-0.204-0.073-0.321-0.073-0.006 0-0.011 0-0.017 0h0.001c-0.004-0-0.008-0-0.012-0-0.078 0-0.153 0.013-0.222 0.036l0.005-0.001c-0.070 0.024-0.125 0.059-0.174 0.104-0.047 0.043-0.085 0.095-0.11 0.154l-0.001 0.003c-0.052 0.139-0.052 0.292 0 0.431 0.082 0.174 0.256 0.293 0.458 0.293 0.023 0 0.045-0.001 0.066-0.004l-0.003 0zM35.040 17.673h0.643v0.15h-0.842v-1.287h0.202l-0.003 1.137zM36.355 17.823h-0.202v-1.287h0.202v1.287zM37.106 16.539c0.014 0.007 0.024 0.014 0.031 0.024l0.863 0.97v-1.005h0.174v1.294h-0.097c-0.017 0-0.031 0-0.045-0.007-0.012-0.006-0.023-0.015-0.031-0.024l-0-0-0.863-0.974v1.005h-0.17v-1.287h0.139zM39.666 16.532v0.139h-0.717v0.428h0.581v0.139h-0.581v0.438h0.717v0.139h-0.925v-1.283h0.925zM18.49 8.577l8.974 2.198v7.708l-8.974-2.198v-7.708zM17.917 7.917v8.744l10.122 2.483v-8.744l-10.122-2.483z"></path>
<path d="M23.339 23.2l-10.122-2.49v-8.734l10.122 2.483v8.737z"></path>
<path d="M18.083 8.477l8.856 2.17-3.767 3.252-8.856-2.17 3.767-3.252zM17.917 7.92l-4.699 4.056 10.122 2.483 4.696-4.059-10.122-2.483zM23.91 22.706l4.129-3.565-4.129-1.012v4.577z"></path>
</symbol>
<symbol id="icon-envelope" viewBox="0 0 43 32">
<path d="M38.667 0h-34.667c-2.213 0-4 1.787-4 4v24c0 2.213 1.787 4 4 4h34.667c2.213 0 4-1.787 4-4v-24c0-2.213-1.787-4-4-4zM38.667 2.667c0.003-0 0.007-0 0.011-0 0.189 0 0.368 0.039 0.531 0.11l-0.009-0.003-17.867 15.467-17.867-15.467c0.154-0.067 0.334-0.107 0.523-0.107 0.004 0 0.007 0 0.011 0h34.666zM38.667 29.333h-34.667c-0.736 0-1.333-0.597-1.333-1.333v0-22.4l17.787 15.413c0.234 0.206 0.542 0.332 0.88 0.332s0.646-0.126 0.881-0.333l-0.001 0.001 17.787-15.413v22.4c0 0.736-0.597 1.333-1.333 1.333v0z"></path>
</symbol>
<symbol id="icon-facebook" viewBox="0 0 32 32">
<path d="M21.328 5.312h2.928v-5.088c-0.512-0.064-2.24-0.224-4.256-0.224-4.224 0-7.104 2.656-7.104 7.52v4.48h-4.64v5.68h4.64v14.32h5.696v-14.304h4.464l0.704-5.696h-5.168v-3.92c0-1.648 0.448-2.768 2.736-2.768z"></path>
</symbol>
<symbol id="icon-instagram" viewBox="0 0 32 32">
<path d="M31.968 9.408c-0.024-1.403-0.292-2.735-0.763-3.968l0.027 0.080c-0.427-1.109-1.058-2.054-1.854-2.83l-0.002-0.002c-0.8-0.8-1.76-1.44-2.832-1.84-1.151-0.448-2.483-0.721-3.875-0.752l-0.013-0c-1.458-0.070-3.167-0.109-4.885-0.109-0.6 0-1.199 0.005-1.797 0.014l0.090-0.001c-4.352 0-4.896 0.016-6.592 0.096-1.712 0.064-2.88 0.352-3.888 0.736-1.107 0.432-2.051 1.063-2.831 1.855l-0.001 0.001c-0.793 0.781-1.424 1.725-1.837 2.778l-0.019 0.054c-0.443 1.152-0.711 2.485-0.736 3.877l-0 0.011c-0.070 1.458-0.109 3.167-0.109 4.885 0 0.6 0.005 1.199 0.014 1.797l-0.001-0.090c0 4.352 0 4.896 0.080 6.592 0.030 1.405 0.303 2.737 0.779 3.968l-0.027-0.080c0.4 1.072 1.040 2.032 1.856 2.832 0.781 0.793 1.725 1.424 2.778 1.837l0.054 0.019c1.008 0.384 2.176 0.656 3.872 0.736 1.712 0.080 2.24 0.096 6.592 0.096s4.896-0.016 6.608-0.096c1.397-0.026 2.724-0.294 3.952-0.763l-0.080 0.027c2.16-0.851 3.837-2.528 4.669-4.633l0.019-0.055c0.384-1.024 0.672-2.176 0.736-3.888 0.080-1.696 0.096-2.24 0.096-6.592 0-4.336 0-4.88-0.080-6.592zM29.088 22.48c-0.064 1.552-0.32 2.4-0.544 2.96-0.552 1.401-1.639 2.488-3.004 3.027l-0.036 0.013c-0.56 0.224-1.424 0.48-2.976 0.544-1.68 0.080-2.192 0.096-6.464 0.096-0.465 0.007-1.013 0.011-1.562 0.011-1.724 0-3.439-0.039-5.144-0.116l0.242 0.009c-1.568-0.064-2.4-0.32-2.96-0.544-0.722-0.271-1.337-0.68-1.839-1.199l-0.001-0.001c-0.518-0.5-0.926-1.108-1.189-1.79l-0.011-0.034c-0.336-0.884-0.535-1.905-0.544-2.972l-0-0.004c-0.068-1.463-0.107-3.179-0.107-4.903 0-0.549 0.004-1.097 0.012-1.643l-0.001 0.083c0-4.272 0.016-4.784 0.096-6.464 0.064-1.568 0.32-2.4 0.544-2.976 0.256-0.688 0.656-1.312 1.2-1.824 0.504-0.519 1.118-0.928 1.806-1.189l0.034-0.011c0.56-0.224 1.408-0.48 2.976-0.544 1.68-0.080 2.192-0.096 6.448-0.096 4.288 0 4.8 0 6.464 0.096 1.568 0.064 2.4 0.32 2.976 0.544 0.688 0.256 1.328 0.656 1.84 1.2 0.528 0.512 0.944 1.136 1.2 1.824 0.208 0.576 0.48 1.424 0.544 2.976 0.080 1.68 0.096 2.192 0.096 6.464s-0.016 4.768-0.096 6.464z"></path>
<path d="M16.064 7.776c-4.542 0-8.224 3.682-8.224 8.224s3.682 8.224 8.224 8.224v0c4.542 0 8.224-3.682 8.224-8.224s-3.682-8.224-8.224-8.224v0zM16.064 21.328c-2.943 0-5.328-2.385-5.328-5.328s2.385-5.328 5.328-5.328v0c2.943 0 5.328 2.385 5.328 5.328s-2.385 5.328-5.328 5.328v0zM26.528 7.456c0 1.060-0.86 1.92-1.92 1.92s-1.92-0.86-1.92-1.92v0c0-1.060 0.86-1.92 1.92-1.92s1.92 0.86 1.92 1.92v0z"></path>
</symbol>
<symbol id="icon-linkedin" viewBox="0 0 32 32">
<path d="M32 32v-11.744c0-5.728-1.232-10.16-7.952-10.16-0.076-0.003-0.166-0.005-0.256-0.005-2.555 0-4.788 1.376-5.999 3.428l-0.018 0.032h-0.096v-2.912h-6.368v21.36h6.64v-10.576c0-2.784 0.528-5.488 3.968-5.488 3.408 0 3.456 3.184 3.456 5.664v10.4h6.624zM0.528 10.64h6.64v21.36h-6.64v-21.36zM3.84 0c-2.121 0-3.84 1.719-3.84 3.84v0c-0 0.005-0 0.010-0 0.016 0 2.127 1.715 3.854 3.838 3.872h0.002c2.128 0 3.84-1.76 3.84-3.888 0-2.121-1.719-3.84-3.84-3.84v0z"></path>
</symbol>
<symbol id="icon-smartphone" viewBox="0 0 20 32">
<path d="M17 0h-14c-1.66 0-3 1.34-3 3v26c0 1.66 1.34 3 3 3h14c1.66 0 3-1.34 3-3v-26c0-1.66-1.34-3-3-3zM3 2h14c0.56 0 1 0.44 1 1v21h-16v-21c0-0.56 0.44-1 1-1zM17 30h-14c-0.552 0-1-0.448-1-1v0-3h16v3c0 0.552-0.448 1-1 1v0z"></path>
<path d="M4.7 27.48c0.4 0.36 0.4 0.96 0 1.32-0.186 0.164-0.431 0.264-0.7 0.264s-0.514-0.1-0.701-0.265l0.001 0.001c-0.177-0.165-0.288-0.399-0.288-0.66s0.111-0.495 0.288-0.659l0.001-0.001c0.4-0.36 1-0.36 1.4 0z"></path>
</symbol>
<symbol id="icon-twitter" viewBox="0 0 32 32">
<path d="M32 6.080c-1.184 0.528-2.464 0.864-3.776 1.040 1.36-0.816 2.4-2.080 2.88-3.632-1.28 0.752-2.672 1.28-4.16 1.6-1.202-1.298-2.915-2.107-4.817-2.107-3.623 0-6.56 2.937-6.56 6.56 0 0.538 0.065 1.060 0.187 1.56l-0.009-0.045c-5.462-0.281-10.265-2.883-13.477-6.83l-0.027-0.034c-0.558 0.949-0.887 2.089-0.887 3.307 0 2.26 1.134 4.255 2.865 5.446l0.022 0.014c-1.040 0-2.080-0.32-2.96-0.8v0.064c0 3.2 2.272 5.84 5.264 6.448-0.518 0.147-1.113 0.232-1.728 0.232-0.442 0-0.873-0.044-1.29-0.127l0.042 0.007c0.878 2.623 3.284 4.493 6.136 4.56l0.008 0c-2.221 1.763-5.066 2.828-8.159 2.828-0.547 0-1.087-0.033-1.617-0.098l0.064 0.006c2.826 1.846 6.286 2.944 10.003 2.944 0.022 0 0.043-0 0.065-0h-0.003c12.080 0 18.672-10 18.672-18.672 0-0.288 0-0.576-0.032-0.848 1.312-0.928 2.4-2.080 3.296-3.408z"></path>
</symbol>
<symbol id="icon-modal-btn" viewBox="0 0 32 32">
<path d="M32 3.2l-3.2-3.2-12.8 12.8-12.8-12.8-3.2 3.2 12.8 12.8-12.8 12.8 3.2 3.2 12.8-12.8 12.8 12.8 3.2-3.2-12.8-12.8 12.8-12.8z"></path>
</symbol>
<symbol id="icon-icon-send" viewBox="0 0 32 32">
<path fill="#fff" style="fill: var(--color1, #fff)" d="M32 0l-32 18 10.227 3.787 15.773-14.787-12 16.187v8.813l5.733-6.693 7.267 2.693 5-28z"></path>
</symbol>
<symbol id="icon-person" viewBox="0 0 32 32">
<path d="M16 16c2.946 0 5.333-2.388 5.333-5.333s-2.388-5.333-5.333-5.333v0c-2.946 0-5.333 2.388-5.333 5.333s2.388 5.333 5.333 5.333v0zM16 18.667c-3.556 0-10.667 1.778-10.667 5.333v1.333c0 0.729 0.604 1.333 1.333 1.333h18.667c0.729 0 1.333-0.604 1.333-1.333v-1.333c0-3.556-7.111-5.333-10.667-5.333z"></path>
</symbol>
<symbol id="icon-phone" viewBox="0 0 32 32">
<path d="M24.889 19.769l-3.271-0.356c-0.782-0.107-1.564 0.178-2.116 0.711l-2.364 2.382c-3.67-1.894-6.586-4.81-8.429-8.372l-0.051-0.108 2.382-2.382c0.551-0.551 0.818-1.333 0.729-2.116l-0.356-3.236c-0.156-1.288-1.243-2.276-2.56-2.276-0.006 0-0.012 0-0.019 0h-2.221c-1.458 0-2.667 1.209-2.578 2.667 0.716 10.991 9.453 19.729 20.38 20.441l0.065 0.003c1.458 0.089 2.667-1.12 2.667-2.578v-2.222c0-1.316-0.96-2.4-2.258-2.56z"></path>
</symbol>
<symbol id="icon-email" viewBox="0 0 32 32">
<path d="M26.667 5.333h-21.333c-1.476 0-2.667 1.191-2.667 2.667v16c0 1.458 1.191 2.667 2.667 2.667h21.333c1.458 0 2.667-1.209 2.667-2.667v-16c0-1.476-1.209-2.667-2.667-2.667zM26.133 11.004l-9.422 5.884c-0.202 0.127-0.448 0.202-0.711 0.202s-0.509-0.075-0.717-0.206l0.006 0.003-9.422-5.867c-0.364-0.195-0.607-0.572-0.607-1.006 0-0.628 0.509-1.138 1.138-1.138 0.255 0 0.491 0.084 0.681 0.226l-0.003-0.002 8.924 5.564 8.942-5.582c0.193-0.155 0.441-0.249 0.71-0.249 0.628 0 1.138 0.509 1.138 1.138 0 0.454-0.266 0.846-0.65 1.028l-0.007 0.003z"></path>
</symbol>
<symbol id="icon-check" viewBox="0 0 34 32">
<path d="M30.336 3.563v24.875h-26.539v-24.875h26.539zM30.336 0h-26.539c-2.091 0-3.797 1.6-3.797 3.563v24.875c0 1.963 1.707 3.563 3.797 3.563h26.539c2.091 0 3.797-1.6 3.797-3.563v-24.875c0-1.963-1.707-3.563-3.797-3.563z"></path>
</symbol>
</defs>
</svg>
